HIERARCHY
ROOT Hips
{
	OFFSET 0.00000 0.00000 0.00000
	CHANNELS 6 Xposition Yposition Zposition Zrotation Yrotation Xrotation 
	JOINT LHipJoint
	{
		OFFSET 0 0 0
		CHANNELS 3 Zrotation Yrotation Xrotation
		JOINT LeftHip
		{
			OFFSET 1.53794 -1.55850 0.93568
			CHANNELS 3 Zrotation Yrotation Xrotation
			JOINT LeftKnee
			{
				OFFSET 2.28545 -6.27922 0.00000
				CHANNELS 3 Zrotation Yrotation Xrotation
				JOINT LeftAnkle
				{
					OFFSET 2.37329 -6.52057 0.00000
					CHANNELS 3 Zrotation Yrotation Xrotation
					JOINT LeftToe
					{
						OFFSET 0.14846 -0.40788 2.09160
						CHANNELS 3 Zrotation Yrotation Xrotation
						End Site
						{
							OFFSET 0.00000 -0.00000 1.07536
						}
					}
				}
			}
		}
	}
	JOINT RHipJoint
	{
		OFFSET 0 0 0
		CHANNELS 3 Zrotation Yrotation Xrotation
		JOINT RightHip
		{
			OFFSET -1.78290 -1.55850 0.93568
			CHANNELS 3 Zrotation Yrotation Xrotation
			JOINT RightKnee
			{
				OFFSET -2.24144 -6.15831 0.00000
				CHANNELS 3 Zrotation Yrotation Xrotation
				JOINT RightAnkle
				{
					OFFSET -2.35091 -6.45907 0.00000
					CHANNELS 3 Zrotation Yrotation Xrotation
					JOINT RightToe
					{
						OFFSET -0.14428 -0.39641 2.07944
						CHANNELS 3 Zrotation Yrotation Xrotation
						End Site
						{
							OFFSET -0.00000 -0.00000 1.06864
						}
					}
				}
			}
		}
	}
	JOINT lowerback
	{
		OFFSET 0 0 0
		CHANNELS 3 Zrotation Yrotation Xrotation
		JOINT Chest
		{
			OFFSET -0.08841 2.11430 -0.15818
			CHANNELS 3 Zrotation Yrotation Xrotation
			JOINT Chest2
			{
				OFFSET -0.00033 2.12605 -0.08097
				CHANNELS 3 Zrotation Yrotation Xrotation
				JOINT lowerneck
				{
					OFFSET 0 0 0
					CHANNELS 3 Zrotation Yrotation Xrotation
					JOINT Neck
					{
						OFFSET 0.04431 1.59447 0.43193
						CHANNELS 3 Zrotation Yrotation Xrotation
						JOINT Head
						{
							OFFSET 0.00455 1.62017 -0.58852
							CHANNELS 3 Zrotation Yrotation Xrotation
							End Site
							{
								OFFSET -0.00920 1.72955 -0.25850
							}
						}
					}
				}
				JOINT LeftCollar
				{
					OFFSET 0 0 0
					CHANNELS 3 Zrotation Yrotation Xrotation
					JOINT LeftShoulder
					{
						OFFSET 2.86490 1.49927 -0.33774
CHANNELS 3 Zrotation Xrotation Yrotation
						JOINT LeftElbow
						{
OFFSET 0 -4.874080 0.000000
CHANNELS 3 Zrotation Xrotation Yrotation
							JOINT LeftWrist
							{
OFFSET 0 -2.767290 0.000000
CHANNELS 3 Zrotation Xrotation Yrotation
								JOINT lhand
								{
									OFFSET 0 0 0
CHANNELS 3 Zrotation Xrotation Yrotation
									JOINT LFingers
									{
OFFSET 0 -0.989220 0.000000
CHANNELS 3 Zrotation Xrotation Yrotation
										End Site
										{
OFFSET 0 -0.797530 0.000000
										}
									}
								}
								JOINT LThumb
								{
OFFSET 0 0.000000 0.000000
CHANNELS 3 Zrotation Xrotation Yrotation
									End Site
									{
OFFSET 0 -0.809720 0.809720
									}
								}
							}
						}
					}
				}
				JOINT RightCollar
				{
					OFFSET 0 0 0
					CHANNELS 3 Zrotation Yrotation Xrotation
					JOINT RightShoulder
					{
						OFFSET -2.94414 1.45463 -0.25291
CHANNELS 3 Zrotation Xrotation Yrotation
						JOINT RightElbow
						{
OFFSET 0 -4.714040 0.000000
CHANNELS 3 Zrotation Xrotation Yrotation
							JOINT RightWrist
							{
OFFSET 0 -2.834680 0.000000
CHANNELS 3 Zrotation Xrotation Yrotation
								JOINT rhand
								{
									OFFSET 0 0 0
CHANNELS 3 Zrotation Xrotation Yrotation
									JOINT RFingers
									{
OFFSET 0 -0.868200 0.000000
CHANNELS 3 Zrotation Xrotation Yrotation
										End Site
										{
OFFSET 0 -0.699960 0.000000
										}
									}
								}
								JOINT RThumb
								{
OFFSET 0 0.000000 0.000000
CHANNELS 3 Zrotation Xrotation Yrotation
									End Site
									{
OFFSET 0 -0.710650 0.710650
									}
								}
							}
						}
					}
				}
			}
		}
	}
}
MOTION
Frames: 7
Frame Time: 0.008333333333333333
2.100675 7.689486 3.446052 178.764898 7.922252 -112.863559 0.000000 0.000000 0.000000 2.518604 3.589982 -104.072745 36.503619 11.458140 146.158923 -0.056112 12.984499 -17.751508 0.680320 -5.273730 -14.690863 0.000000 0.000000 0.000000 19.968564 12.043161 -32.935681 -25.696651 -19.203425 106.871309 0.624480 -19.306609 7.340540 -0.522522 4.628225 -12.851901 -6.028060 2.220119 15.322405 -5.910500 4.613128 12.018170 -3.355907 2.900083 4.488785 5.435649 -1.007949 -24.011626 3.139782 -3.667502 8.466520 -0.276364 -1.349735 6.386300 0.000000 0.000000 0.000000 27.682923 -31.364894 -45.456637 41.831509 -49.106702 19.816613 48.406784 52.954885 -19.802248 0.000000 0.000000 0.000000 -7.125000 0.000000 0.000000 22.972271 56.942817 -6.984548 0.000000 0.000000 0.000000 -12.342600 -40.141533 21.314182 -65.250408 -57.553255 -38.742400 -52.694090 49.729838 6.969137 0.000000 0.000000 0.000000 7.125000 0.000000 0.000000 -22.731983 40.269984 -2.819594
2.073475 7.651211 3.349114 178.970284 7.988898 -112.841354 0.000000 0.000000 0.000000 2.187205 3.609319 -103.379412 36.543655 11.399505 146.360646 -0.092698 13.311004 -17.760510 0.691423 -5.315875 -14.811689 0.000000 0.000000 0.000000 19.829166 11.702653 -32.279008 -25.613522 -19.227069 106.618580 0.686676 -19.380580 6.665465 -0.626331 5.056352 -14.071124 -5.946661 2.034882 15.146375 -5.899867 4.341996 11.909739 -3.350034 2.760114 4.452866 5.561592 -0.739333 -24.074625 2.996625 -3.344289 8.426623 -0.304817 -1.208673 6.381062 0.000000 0.000000 0.000000 27.547396 -29.960323 -44.304994 43.972919 -50.239644 21.450669 49.390066 54.054443 -20.023565 0.000000 0.000000 0.000000 -7.125000 0.000000 0.000000 24.374273 57.514975 -7.780153 0.000000 0.000000 0.000000 -11.194754 -39.762269 22.612041 -64.565764 -57.408069 -38.165053 -53.071716 50.222967 6.877143 0.000000 0.000000 0.000000 7.125000 0.000000 0.000000 -23.039234 40.188233 -2.912343
2.042462 7.613911 3.256328 179.152564 7.991848 -112.826873 0.000000 0.000000 0.000000 1.891858 3.384511 -102.745528 36.560599 11.374537 146.446355 -0.140847 13.687710 -17.703061 0.696932 -5.336548 -14.871017 0.000000 0.000000 0.000000 19.698882 11.306511 -31.648532 -25.540198 -19.247568 106.396026 0.747783 -19.304078 5.773550 -0.774882 5.610695 -15.661650 -5.844877 1.820183 15.044016 -5.841320 4.020436 11.791615 -3.304479 2.593826 4.362175 5.649927 -0.459797 -24.097036 2.854648 -2.991756 8.379359 -0.323306 -1.055286 6.368863 0.000000 0.000000 0.000000 27.248954 -28.569557 -42.746039 46.527723 -51.477570 23.433220 50.308707 54.953606 -19.808679 0.000000 0.000000 0.000000 -7.125000 0.000000 0.000000 25.538478 57.518458 -8.182083 0.000000 0.000000 0.000000 -10.192423 -39.344862 23.920023 -63.937516 -57.270567 -37.636122 -53.427827 50.651348 6.799265 0.000000 0.000000 0.000000 7.125000 0.000000 0.000000 -23.331404 40.124048 -2.993897
2.009151 7.579395 3.167885 179.298242 7.927286 -112.822000 0.000000 0.000000 0.000000 1.642865 2.934411 -102.186362 36.559450 11.376157 146.440617 -0.199103 14.072932 -17.534605 0.691997 -5.317876 -14.817341 0.000000 0.000000 0.000000 19.585226 10.869164 -31.052196 -25.474586 -19.265667 106.197229 0.796121 -19.061388 4.754469 -0.957354 6.224640 -17.439629 -5.733410 1.590491 15.019863 -5.726423 3.668656 11.671220 -3.205726 2.410425 4.222942 5.695125 -0.188171 -24.114006 2.718925 -2.636558 8.344697 -0.332724 -0.900650 6.361359 0.000000 0.000000 0.000000 26.832248 -27.306832 -40.877670 49.490689 -52.769932 25.772783 51.196775 55.673832 -19.143512 0.000000 0.000000 0.000000 -7.125000 0.000000 0.000000 26.444876 56.932876 -8.116994 0.000000 0.000000 0.000000 -9.380991 -38.895242 25.172390 -63.377502 -57.144456 -37.165316 -53.768296 51.006048 6.737979 0.000000 0.000000 0.000000 7.125000 0.000000 0.000000 -23.615448 40.082180 -3.061542
1.975820 7.549780 3.082910 179.391023 7.800633 -112.820531 0.000000 0.000000 0.000000 1.448070 2.306959 -101.702459 36.548046 11.392979 146.382998 -0.260750 14.424633 -17.270100 0.675849 -5.256699 -14.642078 0.000000 0.000000 0.000000 19.489121 10.406722 -30.508153 -25.416047 -19.281636 106.019906 0.824616 -18.694969 3.745733 -1.126122 6.739251 -18.945577 -5.640370 1.362467 15.066582 -5.549984 3.309448 11.555009 -3.033795 2.219428 4.046658 5.679088 0.053691 -24.150255 2.609294 -2.306923 8.345155 -0.327153 -0.755759 6.369672 0.000000 0.000000 0.000000 26.360865 -26.300182 -38.860071 52.885331 -54.080362 28.498783 51.957003 55.888228 -18.027905 0.000000 0.000000 0.000000 -7.125000 0.000000 0.000000 26.915305 55.708894 -7.459014 0.000000 0.000000 0.000000 -8.789974 -38.426590 26.305823 -62.898168 -57.033851 -36.762843 -54.092057 51.331797 6.712231 0.000000 0.000000 0.000000 7.125000 0.000000 0.000000 -23.899078 40.092144 -3.097149
1.944970 7.526416 3.000938 179.423057 7.604573 -112.809399 0.000000 0.000000 0.000000 1.332049 1.587024 -101.298724 36.536221 11.410405 146.323084 -0.316058 14.688041 -16.941022 0.648179 -5.150227 -14.337521 0.000000 0.000000 0.000000 19.433144 9.941491 -30.038309 -25.362220 -19.296158 105.856972 0.833890 -18.304275 2.914043 -1.218847 7.002685 -19.723473 -5.574819 1.145326 15.161665 -5.311520 2.958159 11.447516 -2.782926 2.028101 3.852115 5.605542 0.256099 -24.236036 2.534893 -2.020766 8.391281 -0.306363 -0.627967 6.401187 0.000000 0.000000 0.000000 25.924569 -25.657784 -36.821479 56.652276 -55.342050 31.572671 52.652641 55.918132 -16.735937 0.000000 0.000000 0.000000 -7.125000 0.000000 0.000000 27.158355 54.201545 -6.506556 0.000000 0.000000 0.000000 -8.415809 -37.958273 27.287179 -62.498387 -56.939715 -36.427665 -54.397870 51.618487 6.720908 0.000000 0.000000 0.000000 7.125000 0.000000 0.000000 -24.181555 40.152861 -3.100179
1.918982 7.510473 2.920672 179.383431 7.338987 -112.774381 0.000000 0.000000 0.000000 1.312512 0.833392 -100.955728 36.529770 11.419897 146.290554 -0.353196 14.823231 -16.638389 0.623666 -5.053650 -14.061797 0.000000 0.000000 0.000000 19.428352 9.484962 -29.673565 -25.314024 -19.309060 105.711185 0.832416 -17.987543 2.346469 -1.191201 6.925736 -19.495577 -5.546805 0.945077 15.278332 -5.018287 2.626406 11.352137 -2.454767 1.842319 3.659790 5.499750 0.417644 -24.385970 2.479601 -1.786051 8.492005 -0.280283 -0.521161 6.460258 0.000000 0.000000 0.000000 25.611800 -25.477163 -34.871693 60.700399 -56.492495 34.924665 53.308867 55.958956 -15.516653 0.000000 0.000000 0.000000 -7.125000 0.000000 0.000000 27.342202 52.741371 -5.541984 0.000000 0.000000 0.000000 -8.227447 -37.509577 28.090666 -62.184512 -56.864517 -36.164659 -54.672119 51.843158 6.749291 0.000000 0.000000 0.000000 7.125000 0.000000 0.000000 -24.444838 40.239854 -3.082393
